<svg xmlns="http://www.w3.org/2000/svg" xmlns:xlink="http://www.w3.org/1999/xlink" width="500" zoomAndPan="magnify" viewBox="0 0 375 374.999991" height="500" preserveAspectRatio="xMidYMid meet" version="1.0"><path stroke-linecap="butt" transform="matrix(0.37123, 0.651681, -0.651681, 0.37123, 157.803817, 120.223315)" fill="none" stroke-linejoin="miter" d="M 0.000969631 10.003388 L 195.088412 9.997936 " stroke="#f97316" stroke-width="20" stroke-opacity="1" stroke-miterlimit="4"/><path stroke-linecap="butt" transform="matrix(-0.651681, 0.37123, -0.37123, -0.651681, 244.809641, 166.886401)" fill="none" stroke-linejoin="miter" d="M 0.000633614 9.998051 L 159.999789 10.000946 " stroke="#fb923c" stroke-width="20" stroke-opacity="1" stroke-miterlimit="4"/><path stroke-linecap="butt" transform="matrix(-0.651681, 0.37123, -0.37123, -0.651681, 209.919864, 105.638539)" fill="none" stroke-linejoin="miter" d="M 0.000204884 10.001088 L 160.001938 9.999458 " stroke="#fb923c" stroke-width="20" stroke-opacity="1" stroke-miterlimit="4"/><path stroke-linecap="butt" transform="matrix(0.37123, 0.651681, -0.651681, 0.37123, 241.974716, 151.345303)" fill="none" stroke-linejoin="miter" d="M 0.000577662 10.001667 L 93.605547 10.00003 " stroke="#f97316" stroke-width="20" stroke-opacity="1" stroke-miterlimit="4"/><path stroke-linecap="butt" transform="matrix(0.376923, 0.648405, -0.648405, 0.376923, 145.947403, 205.896138)" fill="none" stroke-linejoin="miter" d="M -0.000509223 9.997408 L 94.074656 10.000619 " stroke="#f97316" stroke-width="20" stroke-opacity="1" stroke-miterlimit="4"/><path stroke-linecap="butt" transform="matrix(0.656425, -0.362776, 0.362776, 0.656425, 164.211044, 267.112804)" fill="none" stroke-linejoin="miter" d="M 0.00202791 9.999188 L 89.7516 9.999835 " stroke="#fb923c" stroke-width="20" stroke-opacity="1" stroke-miterlimit="4"/><path stroke-linecap="butt" transform="matrix(0.37123, 0.651681, -0.651681, 0.37123, 229.992983, 78.123628)" fill="none" stroke-linejoin="miter" d="M 0.000274371 9.999554 L 195.089664 10.001206 " stroke="#f97316" stroke-width="20" stroke-opacity="1" stroke-miterlimit="4"/><path stroke-linecap="butt" transform="matrix(0.37123, 0.651681, -0.651681, 0.37123, 87.86468, 156.271586)" fill="none" stroke-linejoin="miter" d="M 0.000432398 10.00057 L 195.085296 9.999644 " stroke="#f97316" stroke-width="20" stroke-opacity="1" stroke-miterlimit="4"/></svg>